<svg xmlns="http://www.w3.org/2000/svg" viewBox="0 0 128 128"><path d="M107.7 23.89A105.15 105.15 0 0081.47 15.82a72.06 72.06 0 00-3.36 6.83A97.68 97.68 0 0049 22.65 72.37 72.37 0 0045.64 15.82 105.89 105.89 0 0019.39 23.91C2.79 48.47-1.71 72.42.54 96.03h0A105.73 105.73 0 0032.71 112.18 77.7 77.7 0 0039.6 101.07a68.42 68.42 0 01-10.85-5.18c.91-.66 1.8-1.34 2.66-2a75.57 75.57 0 0064.32 0c.87.71 1.76 1.39 2.66 2a68.68 68.68 0 01-10.87 5.19 77 77 0 006.89 11.1A105.25 105.25 0 00126.6 96.04h0C129.24 68.66 122.09 44.93 107.7 23.89ZM42.45 81.51C36.18 81.51 31 75.82 31 68.82s5-12.74 11.43-12.74S54 61.82 53.89 68.82 48.84 81.51 42.45 81.51Zm42.24 0C78.41 81.51 73.25 75.82 73.25 68.82s5-12.74 11.44-12.74S96.23 61.82 96.12 68.82 91.08 81.51 84.69 81.51Z"/></svg>