<svg xmlns="http://www.w3.org/2000/svg" viewBox="0 0 128 128"><path d="M63.8093 1C28.5244 1 0 29.7347 0 65.2834c0 28.416 18.2766 52.4696 43.631 60.9829 3.17.64 4.3311-1.3832 4.3311-3.0851 0-1.4903-.1045-6.5985-.1045-11.921-17.7502 3.8322-21.4465-7.663-21.4465-7.663-2.8526-7.4501-7.0792-9.3649-7.0792-9.3649-5.8096-3.938.4232-3.938.4232-3.938 6.4444.4258 9.826 6.5985 9.826 6.5985 5.7038 9.7907 14.895 7.0243 18.5927 5.3211.5277-4.1509 2.2191-7.0243 4.015-8.6204-14.1571-1.4903-29.0521-7.0243-29.0521-31.7166 0-7.0243 2.5339-12.7713 6.5489-17.2408-.6335-1.5961-2.8526-8.1959.6348-17.0292 0 0 5.3878-1.7032 17.536 6.5985a61.3486 61.3486 90 0115.953-2.129c5.3878 0 10.88.7458 15.9517 2.129 12.1496-8.3017 17.5373-6.5985 17.5373-6.5985 3.4873 8.8333 1.2669 15.4331.6335 17.0292 4.1208 4.4696 6.5502 10.2165 6.5502 17.2408 0 24.6922-14.895 30.1192-29.1579 31.7166 2.3249 2.0219 4.3311 5.8527 4.3311 11.9197 0 8.6204-.1045 15.5389-.1045 17.6666 0 1.7032 1.1624 3.7264 4.3311 3.0877 25.3544-8.5159 43.631-32.5682 43.631-60.9842C127.6173 29.7347 98.9884 1 63.8093 1z"/></svg>