<?xml version="1.0" encoding="UTF-8"?><svg id="a" xmlns="http://www.w3.org/2000/svg" viewBox="0 0 24 16.42105"><path d="M2.28347,16.42105c-.63811,0-1.17821-.22105-1.62032-.66316s-.66316-.98221-.66316-1.62032V2.28347C0,1.64537,.22105,1.10526,.66316,.66316s.98221-.66316,1.62032-.66316H21.71653c.63811,0,1.17821,.22105,1.62032,.66316s.66316,.98221,.66316,1.62032V14.13758c0,.63811-.22105,1.17821-.66316,1.62032s-.98221,.66316-1.62032,.66316H2.28347Zm0-1.89474H21.71653c.09726,0,.18632-.04053,.26716-.12158,.08105-.08084,.12158-.16989,.12158-.26716V2.28347c0-.09726-.04053-.18632-.12158-.26716-.08084-.08105-.16989-.12158-.26716-.12158H2.28347c-.09726,0-.18632,.04053-.26716,.12158-.08105,.08084-.12158,.16989-.12158,.26716V14.13758c0,.09726,.04053,.18632,.12158,.26716,.08084,.08105,.16989,.12158,.26716,.12158Zm4.80979-1.40905h9.81347v-2.23453H7.09326v2.23453Zm-3.78947-3.78947h2.23453v-2.23453H3.30379v2.23453Zm3.78947,0h2.23453v-2.23453h-2.23453v2.23453Zm3.78947,0h2.23453v-2.23453h-2.23453v2.23453Zm3.78947,0h2.23453v-2.23453h-2.23453v2.23453Zm3.78947,0h2.23453v-2.23453h-2.23453v2.23453ZM3.30379,5.53832h2.23453V3.30379H3.30379v2.23453Zm3.78947,0h2.23453V3.30379h-2.23453v2.23453Zm3.78947,0h2.23453V3.30379h-2.23453v2.23453Zm3.78947,0h2.23453V3.30379h-2.23453v2.23453Zm3.78947,0h2.23453V3.30379h-2.23453v2.23453ZM1.89474,14.52632v0Z"/></svg>